<?xml version="1.0" encoding="UTF-8" standalone="no"?><!DOCTYPE svg PUBLIC "-//W3C//DTD SVG 1.1//EN" "http://www.w3.org/Graphics/SVG/1.1/DTD/svg11.dtd"><svg width="100%" height="100%" viewBox="0 0 1000 1000" version="1.1" xmlns="http://www.w3.org/2000/svg" xmlns:xlink="http://www.w3.org/1999/xlink" xml:space="preserve" style="fill-rule:evenodd;clip-rule:evenodd;stroke-linejoin:round;stroke-miterlimit:1.41421;"><path d="M1000,100c0,-55.192 -44.808,-100 -100,-100l-800,0c-55.192,0 -100,44.808 -100,100l0,800c0,55.192 44.808,100 100,100l800,0c55.192,0 100,-44.808 100,-100l0,-800Z"/><path d="M740.278,234.681c-23.849,-27.029 -55.648,-48.89 -95.396,-65.584c-39.748,-16.694 -85.061,-25.042 -135.939,-25.042c-74.726,0 -129.181,14.111 -163.365,42.332c-34.183,28.221 -51.275,66.578 -51.275,115.071c0,25.439 4.571,46.307 13.713,62.603c9.143,16.297 23.253,30.408 42.332,42.332c19.079,11.925 43.524,22.259 73.336,31.004c29.811,8.744 64.988,17.489 105.531,26.233c45.313,9.54 86.055,20.272 122.225,32.196c36.171,11.925 66.976,26.83 92.415,44.717c25.439,17.887 44.915,39.549 58.43,64.988c13.514,25.439 20.271,57.238 20.271,95.396c0,38.953 -7.552,72.739 -22.656,101.358c-15.105,28.618 -36.171,52.467 -63.2,71.546c-27.029,19.079 -59.225,33.19 -96.588,42.332c-37.363,9.142 -78.304,13.713 -122.822,13.713c-131.168,0 -244.451,-40.94 -339.846,-122.822l41.735,-67.969c15.105,15.899 33.19,31.004 54.257,45.313c21.066,14.309 44.518,26.83 70.354,37.562c25.836,10.732 53.461,19.079 82.875,25.041c29.413,5.962 60.417,8.944 93.01,8.944c67.572,0 120.238,-12.124 157.999,-36.37c37.761,-24.246 56.641,-61.013 56.641,-110.301c0,-26.234 -5.366,-48.294 -16.098,-66.181c-10.732,-17.886 -26.83,-33.388 -48.294,-46.505c-21.464,-13.117 -48.095,-24.445 -79.893,-33.985c-31.799,-9.539 -68.765,-19.079 -110.898,-28.618c-44.518,-10.335 -83.471,-21.067 -116.859,-32.196c-33.389,-11.13 -61.61,-25.042 -84.664,-41.736c-23.054,-16.694 -40.344,-36.767 -51.871,-60.218c-11.527,-23.452 -17.291,-52.269 -17.291,-86.453c0,-38.953 7.354,-73.732 22.061,-104.338c14.706,-30.606 35.574,-56.045 62.603,-76.317c27.029,-20.271 58.827,-35.773 95.395,-46.505c36.569,-10.732 77.112,-16.098 121.63,-16.098c56.442,0 106.724,8.546 150.844,25.637c44.12,17.092 84.067,41.14 119.841,72.143l-40.543,66.777Z" style="fill:#fff;fill-rule:nonzero;"/></svg>
