<?xml version="1.0" standalone="no"?>
<!DOCTYPE svg PUBLIC "-//W3C//DTD SVG 20010904//EN"
 "http://www.w3.org/TR/2001/REC-SVG-20010904/DTD/svg10.dtd">
<svg version="1.0" xmlns="http://www.w3.org/2000/svg"
 width="1885.000000pt" height="1885.000000pt" viewBox="0 0 1885.000000 1885.000000"
 preserveAspectRatio="xMidYMid meet">
<metadata>
Created by potrace 1.11, written by Peter Selinger 2001-2013
</metadata>
<g transform="translate(0.000000,1885.000000) scale(0.100000,-0.100000)"
fill="#000000" stroke="none">
<path d="M9217 15813 c-1 -1 -61 -4 -132 -8 -72 -3 -152 -8 -180 -10 -27 -3
-79 -7 -115 -10 -35 -2 -80 -7 -100 -10 -19 -2 -57 -7 -85 -10 -27 -3 -63 -7
-80 -10 -16 -3 -48 -7 -70 -10 -499 -68 -1075 -231 -1555 -440 -113 -49 -426
-203 -522 -257 -135 -75 -322 -245 -466 -423 -31 -38 -67 -81 -79 -95 -13 -14
-23 -28 -23 -32 0 -3 -6 -13 -13 -20 -46 -49 -177 -273 -248 -425 -100 -212
-206 -552 -235 -753 -3 -19 -9 -57 -14 -85 -5 -27 -12 -77 -15 -110 -4 -33 -8
-71 -11 -85 -24 -149 -24 -669 0 -850 2 -14 7 -49 11 -79 3 -30 8 -61 10 -70
1 -9 6 -36 10 -61 45 -290 189 -690 341 -950 69 -119 242 -371 274 -400 3 -3
40 -45 82 -95 127 -147 349 -354 543 -503 88 -68 297 -206 440 -292 105 -62
499 -262 685 -348 36 -16 124 -58 195 -92 72 -34 171 -81 220 -105 417 -198
528 -251 650 -310 77 -37 165 -78 195 -92 30 -14 133 -63 229 -109 95 -46 175
-84 176 -84 1 0 76 -35 166 -78 90 -44 196 -94 234 -112 39 -18 144 -68 234
-111 90 -44 165 -79 167 -79 3 0 136 -65 297 -144 438 -216 646 -354 867 -576
141 -141 216 -241 295 -392 49 -93 106 -244 120 -316 37 -188 44 -398 19 -578
-36 -263 -132 -484 -293 -674 -146 -174 -222 -218 -596 -347 -187 -64 -397
-121 -590 -158 -58 -11 -73 -13 -106 -19 -19 -3 -45 -8 -59 -10 -57 -11 -159
-26 -215 -31 -33 -4 -96 -10 -140 -14 -126 -13 -673 -4 -780 13 -22 3 -62 8
-90 12 -169 19 -375 60 -567 113 -83 23 -250 76 -283 90 -11 5 -36 15 -55 22
-127 46 -312 131 -465 214 -110 60 -316 185 -335 205 -3 3 -24 18 -48 33 -202
131 -553 442 -787 697 -396 432 -721 963 -910 1485 -62 169 -123 370 -140 455
-2 8 -8 33 -14 55 -9 33 -27 123 -46 220 -11 61 -44 287 -50 350 -12 123 -14
143 -21 275 -11 204 -4 613 11 702 2 13 7 50 10 83 26 284 108 684 189 921
l24 71 -62 119 c-71 137 -92 183 -141 314 -56 148 -125 392 -141 500 -3 19 -7
43 -10 52 -7 25 -11 48 -18 109 -4 31 -9 67 -11 80 -27 134 -27 735 0 919 2
14 7 52 11 85 4 33 8 62 9 65 0 3 4 28 9 55 15 102 15 101 51 250 71 300 171
549 337 845 l42 75 -69 -60 c-38 -33 -75 -64 -81 -70 -6 -5 -33 -28 -59 -50
-108 -90 -159 -138 -340 -320 -181 -183 -303 -316 -428 -470 -32 -38 -64 -77
-71 -85 -69 -77 -313 -421 -417 -590 -109 -175 -104 -167 -135 -225 -14 -27
-34 -61 -44 -75 -39 -57 -237 -474 -294 -620 -21 -52 -41 -104 -46 -115 -17
-36 -70 -187 -110 -310 -93 -287 -183 -667 -225 -950 -3 -22 -7 -47 -10 -55
-2 -8 -6 -42 -10 -75 -3 -33 -10 -94 -15 -135 -14 -115 -19 -166 -26 -280 -3
-58 -8 -123 -10 -145 -7 -62 -7 -620 0 -715 4 -47 9 -116 11 -155 8 -105 15
-182 25 -265 5 -41 12 -97 15 -125 3 -27 7 -61 10 -75 3 -14 7 -38 9 -55 7
-45 18 -118 21 -135 7 -40 35 -187 39 -205 37 -182 114 -468 180 -665 275
-828 690 -1531 1321 -2239 98 -110 392 -399 520 -510 214 -187 475 -394 604
-481 13 -8 48 -33 79 -55 53 -38 177 -119 240 -156 561 -336 1069 -554 1636
-705 55 -14 111 -28 125 -30 14 -3 51 -11 81 -19 47 -11 95 -21 240 -50 28 -6
124 -21 185 -30 22 -4 67 -10 100 -15 33 -5 89 -12 125 -15 36 -4 72 -8 80
-10 8 -2 53 -7 100 -10 47 -4 96 -8 109 -10 40 -7 386 -18 533 -18 137 0 428
11 503 18 22 2 69 7 105 10 36 4 85 9 109 11 24 2 62 6 85 10 22 3 50 7 61 9
86 11 232 34 269 41 11 2 59 11 106 20 621 116 1299 372 1877 710 132 77 377
235 381 246 2 4 8 8 13 8 6 0 15 4 22 10 7 5 89 67 182 136 94 70 173 132 178
138 136 202 264 446 340 651 42 112 84 243 92 286 2 11 6 23 9 27 3 5 7 19 10
33 2 13 12 58 21 99 9 41 18 84 21 95 6 27 11 58 23 135 6 36 13 74 15 86 2
11 7 58 11 105 3 46 8 95 10 109 15 88 23 606 11 690 -2 14 -7 64 -11 110 -13
168 -68 471 -113 620 -9 30 -17 57 -17 60 -30 111 -105 304 -183 469 -54 116
-205 371 -224 379 -5 2 -8 8 -8 13 0 23 -191 258 -309 382 -36 37 -68 71 -71
75 -22 30 -258 231 -381 325 -70 54 -282 196 -319 213 -8 4 -58 33 -110 64
-84 50 -498 260 -512 260 -3 0 -57 24 -119 54 -108 51 -273 127 -420 194 -37
17 -104 48 -150 70 -46 22 -138 64 -204 95 -66 30 -154 70 -195 90 -41 19
-129 59 -195 90 -131 60 -230 106 -373 173 -51 24 -95 44 -97 44 -2 0 -65 29
-140 65 -75 36 -139 65 -141 65 -2 0 -60 27 -130 60 -69 33 -128 60 -130 60
-2 0 -60 27 -130 60 -69 33 -127 60 -129 60 -1 0 -54 24 -116 53 -136 64 -207
97 -274 127 -488 218 -807 436 -1012 692 -75 92 -91 118 -158 253 -85 172
-119 331 -118 546 2 453 155 800 461 1048 96 78 136 95 377 166 81 24 239 63
285 71 14 3 32 7 40 9 8 2 29 6 45 9 17 3 71 12 120 20 50 8 117 18 150 21 33
4 71 9 85 11 154 24 907 24 949 0 3 -2 38 -7 76 -10 39 -3 80 -8 91 -10 12 -3
37 -7 55 -10 19 -3 43 -7 54 -10 11 -2 40 -7 65 -11 56 -8 310 -70 382 -92
217 -66 423 -149 628 -252 259 -130 565 -331 751 -493 15 -13 38 -32 52 -43
139 -111 443 -419 587 -595 25 -30 47 -57 50 -60 4 -3 41 -51 83 -107 291
-386 512 -804 666 -1259 66 -195 137 -472 167 -653 3 -18 8 -43 10 -55 2 -11
11 -75 19 -141 9 -66 17 -133 20 -150 2 -16 7 -68 10 -115 3 -47 8 -110 11
-140 6 -65 5 -517 -1 -575 -2 -22 -6 -76 -10 -120 -3 -44 -7 -89 -9 -100 -2
-11 -7 -49 -11 -85 -3 -36 -9 -78 -12 -95 -2 -16 -10 -64 -17 -106 l-13 -76
55 -84 c104 -159 151 -244 262 -484 10 -22 32 -78 49 -125 17 -47 36 -93 41
-102 6 -10 10 -23 10 -30 0 -8 12 -49 26 -93 23 -74 42 -150 78 -315 13 -57
39 -220 51 -320 27 -220 27 -715 0 -935 -2 -16 -6 -57 -10 -90 -3 -33 -10 -85
-15 -115 -5 -30 -12 -73 -16 -95 -3 -22 -12 -71 -21 -110 -8 -38 -17 -81 -19
-95 -23 -121 -113 -401 -179 -553 l-35 -82 107 110 c60 61 140 146 178 190 39
44 75 85 80 91 77 84 246 298 357 450 418 575 733 1216 919 1869 48 171 112
438 133 560 9 50 19 104 21 120 3 17 8 41 10 55 9 47 41 308 51 405 1 17 5 80
9 140 4 61 9 124 11 140 7 37 6 653 -1 715 -2 25 -7 93 -10 151 -3 59 -8 122
-10 140 -2 19 -7 59 -10 89 -3 30 -8 69 -10 86 -2 17 -7 57 -10 90 -3 32 -8
70 -11 84 -2 14 -6 34 -8 45 -2 11 -9 55 -16 98 -50 331 -172 802 -285 1102
-14 39 -27 75 -29 80 -2 6 -7 19 -11 30 -5 11 -17 43 -27 70 -21 56 -24 64
-63 150 -15 33 -35 81 -46 107 -23 59 -158 330 -214 428 -23 41 -54 98 -70
125 -15 28 -55 94 -89 147 -33 54 -70 113 -81 131 -78 128 -336 472 -490 652
-221 259 -473 513 -700 706 -22 19 -45 39 -51 44 -6 6 -30 26 -54 45 -24 19
-69 56 -99 81 -79 65 -339 259 -364 273 -12 6 -38 23 -57 38 -19 14 -93 63
-165 108 -619 393 -1265 655 -2010 816 -20 4 -136 26 -245 45 -30 5 -71 12
-90 14 -19 3 -80 12 -135 20 -55 8 -129 17 -165 20 -36 3 -87 8 -115 11 -68 8
-123 11 -310 20 -143 6 -514 12 -518 7z"/>
</g>
</svg>
