<?xml version="1.0" encoding="UTF-8" standalone="no"?><!DOCTYPE svg PUBLIC "-//W3C//DTD SVG 1.1//EN" "http://www.w3.org/Graphics/SVG/1.1/DTD/svg11.dtd"><svg width="100%" height="100%" viewBox="0 0 755 198" version="1.1" xmlns="http://www.w3.org/2000/svg" xmlns:xlink="http://www.w3.org/1999/xlink" xml:space="preserve" xmlns:serif="http://www.serif.com/" style="fill-rule:evenodd;clip-rule:evenodd;stroke-linejoin:round;stroke-miterlimit:1.41421;"><rect id="Logo-1" serif:id="Logo 1" x="0" y="0" width="754.734" height="197.664" style="fill:none;"/><g><g><rect x="25.534" y="151.282" width="167.885" height="3.234" style="fill:#e96e13;"/><rect x="558.108" y="151.282" width="171.092" height="3.234" style="fill:#e96e13;"/><text x="204.262px" y="167.857px" style="font-family:'Raleway-SemiBold', 'Raleway', sans-serif;font-weight:600;font-size:42.253px;fill:#393939;">S<tspan x="246.134px 293.964px 334.485px 376.568px 434.454px 479.031px 523.016px " y="167.857px 167.857px 167.857px 167.857px 167.857px 167.857px 167.857px ">OFTWARE</tspan></text></g><g><path d="M381.239,71.613c0,-11.711 -4.071,-21.762 -12.101,-29.874c-1.199,-1.211 -2.534,-2.381 -4.201,-3.684c-7.256,-5.669 -15.818,-8.544 -25.448,-8.544c-7.411,0 -14.283,1.791 -20.422,5.323c-4.524,3.579 -6.838,8.95 -6.838,15.937c0,3.286 0.659,6.322 1.96,9.024c2.21,4.59 6.325,8.332 12.23,11.123l20.119,9.574c5.546,2.663 8.242,6.067 8.242,10.407c0,2.883 -0.925,5.131 -2.827,6.874c-0.006,0.004 -0.011,0.009 -0.016,0.014c-0.817,0.744 -4.052,1.779 -5.127,2.038c-2.23,0.535 -4.426,0.971 -7.204,0.971c-7.767,0 -14.251,-2.837 -19.821,-8.671c-5.514,-5.773 -8.309,-12.792 -8.309,-20.863c0,-3.516 0.529,-6.867 1.572,-9.966c-0.252,-0.438 -0.464,-0.838 -0.648,-1.218c-1.343,-2.791 -2.025,-5.922 -2.025,-9.307c0,-4.784 1.079,-8.865 3.21,-12.167c-1.249,0.997 -2.408,2.031 -3.507,3.13c-8.11,8.112 -12.223,18.046 -12.223,29.528c0,11.485 4.112,21.439 12.22,29.585c0.697,0.701 1.439,1.352 2.157,1.983l0.128,0.112c7.693,6.76 16.86,10.187 27.246,10.187c9.566,0 18.154,-2.991 25.527,-8.89c2.522,-3.526 3.801,-8.054 3.801,-13.461c0,-4.303 -0.982,-8.145 -2.919,-11.42c-2.295,-3.881 -5.971,-7.024 -10.924,-9.34l-21.212,-9.818c-5.044,-2.339 -7.496,-5.344 -7.496,-9.186c0,-3.239 1.099,-5.612 3.359,-7.255c0.143,-0.1 0.307,-0.2 0.489,-0.301c3.003,-1.077 6.181,-1.612 9.492,-1.612c7.762,0 14.206,2.816 19.7,8.61c5.438,5.733 8.196,12.812 8.196,21.04c0,1.881 -0.178,3.776 -0.526,5.634c0.322,0.458 0.622,0.921 0.892,1.377c1.997,3.376 3.009,7.33 3.009,11.752c0,4.021 -0.699,7.589 -2.082,10.636c0.015,-0.015 0.03,-0.031 0.046,-0.046c8.149,-8.148 12.281,-17.985 12.281,-29.236Z" style="fill:#e96e13;"/><text x="23.322px" y="101.266px" style="font-family:'Raleway-SemiBold', 'Raleway', sans-serif;font-weight:600;font-size:85.073px;fill:#393939;">S<tspan x="77.428px 143.529px 195.339px 220.605px " y="101.266px 101.266px 101.266px 101.266px ">OLID</tspan></text><text x="396.906px" y="101.266px" style="font-family:'Raleway-SemiBold', 'Raleway', sans-serif;font-weight:600;font-size:85.073px;fill:#393939;">O<tspan x="463.008px 522.559px 566.201px 618.35px 678.071px " y="101.266px 101.266px 101.266px 101.266px 101.266px ">BJECT</tspan></text></g></g></svg>