<?xml version="1.0" encoding="UTF-8" standalone="no"?><!DOCTYPE svg PUBLIC "-//W3C//DTD SVG 1.1//EN" "http://www.w3.org/Graphics/SVG/1.1/DTD/svg11.dtd"><svg width="100%" height="100%" viewBox="0 0 620 252" version="1.1" xmlns="http://www.w3.org/2000/svg" xmlns:xlink="http://www.w3.org/1999/xlink" xml:space="preserve" xmlns:serif="http://www.serif.com/" style="fill-rule:evenodd;clip-rule:evenodd;stroke-linejoin:round;stroke-miterlimit:1.41421;"><rect id="Logo-2" serif:id="Logo 2" x="0" y="0" width="619.15" height="251.267" style="fill:none;"/><g id="Layer-1" serif:id="Layer 1"><g><g><path d="M390.981,107.361c0,-22.866 -7.949,-42.491 -23.628,-58.331c-2.341,-2.364 -4.948,-4.65 -8.203,-7.194c-14.168,-11.069 -30.885,-16.682 -49.688,-16.682c-14.472,0 -27.888,3.497 -39.875,10.394c-8.835,6.987 -13.353,17.474 -13.353,31.117c0,6.417 1.288,12.345 3.828,17.621c4.315,8.962 12.349,16.268 23.879,21.717l39.284,18.695c10.829,5.199 16.093,11.845 16.093,20.32c0,5.63 -1.806,10.019 -5.52,13.421l-0.001,0c-0.01,0.009 -0.019,0.018 -0.029,0.028c-1.596,1.454 -7.912,3.475 -10.011,3.979c-4.355,1.046 -8.643,1.896 -14.067,1.896c-15.165,0 -27.825,-5.538 -38.703,-16.93c-10.765,-11.273 -16.223,-24.978 -16.223,-40.736c0,-6.865 1.032,-13.409 3.069,-19.46c-0.492,-0.854 -0.906,-1.635 -1.264,-2.378c-2.623,-5.45 -3.954,-11.564 -3.954,-18.173c0,-9.34 2.105,-17.308 6.267,-23.756c-2.44,1.946 -4.701,3.966 -6.847,6.112c-15.836,15.838 -23.866,35.236 -23.866,57.655c0,22.425 8.028,41.861 23.86,57.765c1.361,1.369 2.81,2.642 4.211,3.873l0.251,0.22c15.021,13.198 32.92,19.89 53.199,19.89c18.678,0 35.448,-5.841 49.843,-17.359c4.925,-6.883 7.422,-15.726 7.422,-26.284c0,-8.4 -1.917,-15.902 -5.7,-22.297c-4.481,-7.579 -11.658,-13.715 -21.331,-18.237l-41.417,-19.17c-9.849,-4.568 -14.636,-10.436 -14.636,-17.938c0,-6.323 2.145,-10.956 6.558,-14.164c0.28,-0.196 0.601,-0.392 0.955,-0.588c5.865,-2.103 12.069,-3.147 18.535,-3.147c15.156,0 27.738,5.498 38.465,16.81c10.618,11.195 16.002,25.017 16.002,41.082c0,3.673 -0.345,7.374 -1.027,11.001c0.63,0.894 1.216,1.798 1.743,2.688c3.899,6.593 5.876,14.314 5.876,22.947c0,7.851 -1.366,14.818 -4.066,20.768c0.029,-0.03 0.059,-0.06 0.089,-0.09c15.913,-15.909 23.98,-35.116 23.98,-57.085" style="fill:#d6d6d6;fill-rule:nonzero;"/><text x="22.594px" y="135.03px" style="font-family:'Raleway-SemiBold', 'Raleway', sans-serif;font-weight:600;font-size:80.23px;fill:#403f41;">S<tspan x="72.817px 134.353px 182.411px 205.437px 264.085px 285.105px 346.641px 401.999px 442.355px 490.733px 546.252px " y="135.03px 135.03px 135.03px 135.03px 135.03px 135.03px 135.03px 135.03px 135.03px 135.03px 135.03px ">OLID OBJECT</tspan></text></g><text x="183.609px" y="225.823px" style="font-family:'Raleway-SemiBold', 'Raleway', sans-serif;font-weight:600;font-size:41.491px;fill:#403f41;">S<tspan x="212.486px 247.214px 274.764px 303.849px 348.452px 379.985px 410.937px " y="225.823px 225.823px 225.823px 225.823px 225.823px 225.823px 225.823px ">OFTWARE</tspan></text></g></g></svg>
