<?xml version="1.0" encoding="UTF-8" standalone="no"?><!DOCTYPE svg PUBLIC "-//W3C//DTD SVG 1.1//EN" "http://www.w3.org/Graphics/SVG/1.1/DTD/svg11.dtd"><svg width="100%" height="100%" viewBox="0 0 50 50" version="1.1" xmlns="http://www.w3.org/2000/svg" xmlns:xlink="http://www.w3.org/1999/xlink" xml:space="preserve" xmlns:serif="http://www.serif.com/" style="fill-rule:evenodd;clip-rule:evenodd;stroke-linejoin:round;stroke-miterlimit:1.41421;"><path id="Header-Logo" serif:id="Header Logo" d="M50,25.175c0,-7.002 -2.441,-13.013 -7.256,-17.863c-0.719,-0.724 -1.52,-1.424 -2.519,-2.203c-4.351,-3.39 -9.485,-5.109 -15.26,-5.109c-4.444,0 -8.564,1.071 -12.246,3.183c-2.712,2.14 -4.1,5.352 -4.1,9.53c0,1.964 0.395,3.78 1.175,5.396c1.326,2.744 3.793,4.982 7.334,6.651l12.064,5.724c3.326,1.593 4.942,3.628 4.942,6.223c0,1.724 -0.554,3.069 -1.695,4.111c-0.004,0.002 -0.007,0.005 -0.01,0.008c-0.489,0.445 -2.429,1.064 -3.074,1.219c-1.337,0.32 -2.654,0.58 -4.32,0.58c-4.657,0 -8.545,-1.696 -11.885,-5.184c-3.306,-3.453 -4.982,-7.65 -4.982,-12.476c0,-2.102 0.317,-4.106 0.942,-5.959c-0.151,-0.262 -0.278,-0.501 -0.388,-0.728c-0.806,-1.669 -1.215,-3.541 -1.215,-5.565c0,-2.861 0.647,-5.301 1.925,-7.276c-0.749,0.596 -1.444,1.215 -2.103,1.872c-4.863,4.85 -7.329,10.791 -7.329,17.656c0,6.868 2.466,12.82 7.328,17.691c0.417,0.419 0.862,0.808 1.293,1.186l0.077,0.067c4.613,4.042 10.11,6.091 16.337,6.091c5.736,0 10.886,-1.788 15.307,-5.316c1.513,-2.108 2.279,-4.816 2.279,-8.049c0,-2.573 -0.588,-4.87 -1.75,-6.829c-1.376,-2.32 -3.58,-4.2 -6.55,-5.585l-12.72,-5.87c-3.024,-1.399 -4.495,-3.196 -4.495,-5.493c0,-1.937 0.659,-3.356 2.015,-4.338c0.085,-0.06 0.184,-0.12 0.293,-0.18c1.801,-0.644 3.706,-0.964 5.692,-0.964c4.654,0 8.518,1.684 11.812,5.148c3.261,3.428 4.915,7.661 4.915,12.581c0,1.125 -0.107,2.258 -0.315,3.369c0.193,0.274 0.373,0.551 0.534,0.824c1.198,2.018 1.805,4.383 1.805,7.027c0,2.404 -0.419,4.538 -1.249,6.36c0.009,-0.009 0.018,-0.019 0.028,-0.028c4.886,-4.872 7.364,-10.754 7.364,-17.482" style="fill:#fff;fill-rule:nonzero;"/></svg>