<?xml version="1.0" encoding="UTF-8" standalone="no"?><!DOCTYPE svg PUBLIC "-//W3C//DTD SVG 1.1//EN" "http://www.w3.org/Graphics/SVG/1.1/DTD/svg11.dtd"><svg width="100%" height="100%" viewBox="0 0 350 69" version="1.1" xmlns="http://www.w3.org/2000/svg" xmlns:xlink="http://www.w3.org/1999/xlink" xml:space="preserve" xmlns:serif="http://www.serif.com/" style="fill-rule:evenodd;clip-rule:evenodd;stroke-linejoin:round;stroke-miterlimit:1.41421;"><g id="Full-Company-Logo" serif:id="Full Company Logo"><g><rect x="0" y="60.568" width="83.505" height="1.609" style="fill:#fff;"/><rect x="264.9" y="60.568" width="85.1" height="1.609" style="fill:#fff;"/><text x="88.898px" y="68.812px" style="font-family:'Raleway-SemiBold', 'Raleway', sans-serif;font-weight:600;font-size:21.016px;fill:#fff;">S<tspan x="109.726px 133.516px 153.671px 174.603px 203.395px 225.567px 247.445px " y="68.812px 68.812px 68.812px 68.812px 68.812px 68.812px 68.812px ">OFTWARE</tspan></text></g><g><path d="M176.926,20.941c0,-5.825 -2.025,-10.824 -6.019,-14.859c-0.597,-0.602 -1.261,-1.184 -2.09,-1.832c-3.609,-2.82 -7.868,-4.25 -12.657,-4.25c-3.687,0 -7.105,0.891 -10.158,2.648c-2.25,1.78 -3.401,4.451 -3.401,7.927c0,1.634 0.327,3.144 0.974,4.488c1.1,2.283 3.146,4.144 6.084,5.533l10.007,4.762c2.758,1.324 4.099,3.017 4.099,5.176c0,1.434 -0.46,2.552 -1.406,3.419c-0.003,0.002 -0.005,0.005 -0.008,0.007c-0.406,0.37 -2.015,0.885 -2.55,1.014c-1.109,0.266 -2.202,0.483 -3.583,0.483c-3.864,0 -7.089,-1.411 -9.859,-4.313c-2.743,-2.872 -4.133,-6.363 -4.133,-10.377c0,-1.749 0.263,-3.416 0.782,-4.957c-0.125,-0.218 -0.231,-0.417 -0.322,-0.606c-0.668,-1.388 -1.008,-2.946 -1.008,-4.629c0,-2.38 0.537,-4.41 1.597,-6.052c-0.621,0.496 -1.198,1.01 -1.744,1.557c-4.034,4.035 -6.08,8.976 -6.08,14.687c0,5.712 2.045,10.663 6.078,14.715c0.347,0.349 0.716,0.673 1.073,0.986l0.064,0.056c3.826,3.363 8.386,5.067 13.552,5.067c4.758,0 9.029,-1.488 12.697,-4.422c1.254,-1.753 1.89,-4.006 1.89,-6.695c0,-2.14 -0.488,-4.051 -1.452,-5.68c-1.141,-1.931 -2.97,-3.494 -5.433,-4.646l-10.551,-4.883c-2.509,-1.164 -3.728,-2.659 -3.728,-4.57c0,-1.611 0.546,-2.791 1.67,-3.608c0.072,-0.05 0.153,-0.1 0.244,-0.15c1.493,-0.536 3.074,-0.802 4.721,-0.802c3.861,0 7.066,1.401 9.799,4.283c2.704,2.852 4.076,6.373 4.076,10.465c0,0.936 -0.088,1.878 -0.261,2.802c0.16,0.228 0.309,0.459 0.443,0.685c0.994,1.68 1.497,3.646 1.497,5.846c0,2 -0.348,3.774 -1.036,5.29c0.008,-0.007 0.015,-0.015 0.023,-0.023c4.054,-4.053 6.109,-8.945 6.109,-14.542Z" style="fill:#fff;"/><text x="-1.1px" y="35.69px" style="font-family:'Raleway-SemiBold', 'Raleway', sans-serif;font-weight:600;font-size:42.315px;fill:#fff;">S<tspan x="25.812px 58.69px 84.46px 97.028px " y="35.69px 35.69px 35.69px 35.69px ">OLID</tspan></text><text x="184.719px" y="35.69px" style="font-family:'Raleway-SemiBold', 'Raleway', sans-serif;font-weight:600;font-size:42.315px;fill:#fff;">O<tspan x="217.597px 247.218px 268.925px 294.864px 324.569px " y="35.69px 35.69px 35.69px 35.69px 35.69px ">BJECT</tspan></text></g></g></svg>