<?xml version="1.0" encoding="UTF-8" standalone="no"?><!DOCTYPE svg PUBLIC "-//W3C//DTD SVG 1.1//EN" "http://www.w3.org/Graphics/SVG/1.1/DTD/svg11.dtd"><svg width="100%" height="100%" viewBox="0 0 350 69" version="1.1" xmlns="http://www.w3.org/2000/svg" xmlns:xlink="http://www.w3.org/1999/xlink" xml:space="preserve" xmlns:serif="http://www.serif.com/" style="fill-rule:evenodd;clip-rule:evenodd;stroke-linejoin:round;stroke-miterlimit:1.41421;"><g id="Full-Company-Logo" serif:id="Full Company Logo"><g><rect x="0" y="60.568" width="83.505" height="1.609" style="fill:#fff;"/><rect x="264.9" y="60.568" width="85.1" height="1.609" style="fill:#fff;"/><path d="M99.407,57.4c-0.141,-0.154 -0.344,-0.318 -0.61,-0.493c-0.266,-0.176 -0.578,-0.34 -0.935,-0.494c-0.357,-0.154 -0.75,-0.281 -1.177,-0.379c-0.427,-0.098 -0.865,-0.147 -1.314,-0.147c-0.994,0 -1.726,0.182 -2.196,0.547c-0.469,0.364 -0.704,0.868 -0.704,1.513c0,0.364 0.074,0.662 0.221,0.893c0.147,0.231 0.375,0.434 0.683,0.609c0.308,0.176 0.693,0.33 1.156,0.463c0.462,0.133 1.002,0.277 1.618,0.431c0.757,0.182 1.44,0.385 2.049,0.609c0.61,0.224 1.124,0.498 1.545,0.82c0.42,0.322 0.746,0.718 0.977,1.187c0.231,0.47 0.347,1.04 0.347,1.713c0,0.757 -0.144,1.408 -0.431,1.955c-0.287,0.546 -0.68,0.991 -1.177,1.334c-0.497,0.343 -1.075,0.596 -1.734,0.757c-0.658,0.161 -1.366,0.241 -2.122,0.241c-1.135,0 -2.232,-0.171 -3.289,-0.515c-1.058,-0.343 -2.015,-0.844 -2.869,-1.502l1.072,-2.018c0.182,0.182 0.444,0.386 0.788,0.61c0.343,0.224 0.742,0.431 1.198,0.62c0.455,0.189 0.949,0.35 1.481,0.483c0.533,0.133 1.086,0.2 1.661,0.2c0.924,0 1.639,-0.161 2.143,-0.484c0.505,-0.322 0.757,-0.798 0.757,-1.429c0,-0.378 -0.095,-0.693 -0.284,-0.946c-0.189,-0.252 -0.459,-0.472 -0.809,-0.662c-0.35,-0.189 -0.778,-0.36 -1.282,-0.514c-0.504,-0.155 -1.079,-0.316 -1.723,-0.484c-0.743,-0.196 -1.391,-0.403 -1.944,-0.62c-0.554,-0.217 -1.013,-0.48 -1.377,-0.788c-0.364,-0.308 -0.641,-0.669 -0.83,-1.082c-0.189,-0.414 -0.284,-0.914 -0.284,-1.503c0,-0.728 0.14,-1.376 0.421,-1.944c0.28,-0.567 0.662,-1.044 1.145,-1.429c0.483,-0.385 1.054,-0.676 1.713,-0.872c0.658,-0.196 1.373,-0.294 2.143,-0.294c1.009,0 1.941,0.161 2.796,0.483c0.854,0.322 1.604,0.722 2.248,1.198l-1.071,1.933Z" style="fill:#fff;fill-rule:nonzero;"/><path d="M117.607,68.917c-1.065,0 -2.035,-0.213 -2.911,-0.641c-0.876,-0.427 -1.629,-0.994 -2.259,-1.702c-0.631,-0.708 -1.118,-1.517 -1.461,-2.427c-0.343,-0.911 -0.515,-1.843 -0.515,-2.796c0,-0.994 0.182,-1.947 0.547,-2.858c0.364,-0.91 0.865,-1.716 1.502,-2.417c0.638,-0.7 1.394,-1.257 2.27,-1.67c0.876,-0.414 1.832,-0.62 2.869,-0.62c1.064,0 2.035,0.22 2.91,0.662c0.876,0.441 1.626,1.019 2.249,1.733c0.624,0.715 1.107,1.524 1.45,2.428c0.344,0.904 0.515,1.825 0.515,2.763c0,0.995 -0.178,1.948 -0.536,2.859c-0.357,0.91 -0.858,1.713 -1.502,2.406c-0.645,0.694 -1.405,1.247 -2.281,1.66c-0.875,0.414 -1.825,0.62 -2.847,0.62Zm-4.75,-7.566c0,0.701 0.112,1.381 0.336,2.039c0.224,0.659 0.543,1.24 0.956,1.744c0.414,0.505 0.915,0.908 1.503,1.209c0.589,0.301 1.247,0.452 1.976,0.452c0.756,0 1.425,-0.158 2.007,-0.473c0.581,-0.315 1.075,-0.732 1.481,-1.251c0.407,-0.518 0.715,-1.1 0.925,-1.744c0.21,-0.645 0.315,-1.303 0.315,-1.976c0,-0.714 -0.112,-1.397 -0.336,-2.049c-0.224,-0.651 -0.543,-1.226 -0.956,-1.723c-0.414,-0.497 -0.911,-0.897 -1.492,-1.198c-0.582,-0.301 -1.23,-0.452 -1.944,-0.452c-0.757,0 -1.429,0.158 -2.018,0.473c-0.588,0.315 -1.086,0.725 -1.492,1.23c-0.406,0.504 -0.718,1.082 -0.935,1.733c-0.217,0.652 -0.326,1.314 -0.326,1.986Z" style="fill:#fff;fill-rule:nonzero;"/><path d="M135.197,68.812l0,-14.921l9.941,0l0,2.08l-7.587,0l0,4.456l6.347,0l0,1.954l-6.347,0l0,6.431l-2.354,0Z" style="fill:#fff;fill-rule:nonzero;"/><path d="M166.301,55.971l-4.959,0l0,12.841l-2.375,0l0,-12.841l-4.981,0l0,-2.08l12.315,0l0,2.08Z" style="fill:#fff;fill-rule:nonzero;"/><path d="M181.58,53.954l2.228,0l1.828,5.065l1.85,-5.065l2.206,0l-2.543,6.641l2.228,5.485l4.645,-12.189l2.585,0l-6.158,14.921l-2.018,0l-2.774,-6.683l-2.795,6.683l-2.017,0l-6.158,-14.921l2.564,0l4.665,12.189l2.228,-5.485l-2.564,-6.641Z" style="fill:#fff;fill-rule:nonzero;"/><path d="M209.469,53.891l2.059,0l5.885,14.921l-2.48,0l-1.576,-4.056l-5.759,0l-1.555,4.056l-2.501,0l5.927,-14.921Zm3.425,9.121l-2.395,-6.41l-2.48,6.41l4.875,0Z" style="fill:#fff;fill-rule:nonzero;"/><path d="M227.249,68.812l0,-14.921l6.494,0c0.672,0 1.292,0.14 1.86,0.42c0.567,0.28 1.054,0.648 1.46,1.103c0.406,0.456 0.725,0.974 0.956,1.556c0.232,0.581 0.347,1.173 0.347,1.775c0,0.505 -0.07,0.988 -0.21,1.451c-0.14,0.462 -0.336,0.889 -0.588,1.282c-0.253,0.392 -0.561,0.732 -0.925,1.019c-0.364,0.287 -0.764,0.501 -1.198,0.641l3.51,5.674l-2.669,0l-3.237,-5.191l-3.447,0l0,5.191l-2.353,0Zm2.353,-7.271l4.12,0c0.336,0 0.641,-0.074 0.914,-0.221c0.273,-0.147 0.508,-0.35 0.704,-0.61c0.196,-0.259 0.35,-0.556 0.462,-0.893c0.112,-0.336 0.168,-0.693 0.168,-1.072c0,-0.378 -0.066,-0.735 -0.199,-1.071c-0.133,-0.337 -0.309,-0.631 -0.526,-0.883c-0.217,-0.252 -0.469,-0.452 -0.756,-0.599c-0.288,-0.147 -0.585,-0.221 -0.894,-0.221l-3.993,0l0,5.57Z" style="fill:#fff;fill-rule:nonzero;"/><path d="M259.361,66.732l0,2.08l-10.234,0l0,-14.921l10.045,0l0,2.08l-7.692,0l0,4.246l6.662,0l0,1.954l-6.662,0l0,4.561l7.881,0Z" style="fill:#fff;fill-rule:nonzero;"/></g><g><path d="M176.926,20.941c0,-5.825 -2.025,-10.824 -6.019,-14.859c-0.597,-0.602 -1.261,-1.184 -2.09,-1.832c-3.609,-2.82 -7.868,-4.25 -12.657,-4.25c-3.687,0 -7.105,0.891 -10.158,2.648c-2.25,1.78 -3.401,4.451 -3.401,7.927c0,1.634 0.327,3.144 0.974,4.488c1.1,2.283 3.146,4.144 6.084,5.533l10.007,4.762c2.758,1.324 4.099,3.017 4.099,5.176c0,1.434 -0.46,2.552 -1.406,3.419c-0.003,0.002 -0.005,0.005 -0.008,0.007c-0.406,0.37 -2.015,0.885 -2.55,1.014c-1.109,0.266 -2.202,0.483 -3.583,0.483c-3.864,0 -7.089,-1.411 -9.859,-4.313c-2.743,-2.872 -4.133,-6.363 -4.133,-10.377c0,-1.749 0.263,-3.416 0.782,-4.957c-0.125,-0.218 -0.231,-0.417 -0.322,-0.606c-0.668,-1.388 -1.008,-2.946 -1.008,-4.629c0,-2.38 0.537,-4.41 1.597,-6.052c-0.621,0.496 -1.198,1.01 -1.744,1.557c-4.034,4.035 -6.08,8.976 -6.08,14.687c0,5.712 2.045,10.663 6.078,14.715c0.347,0.349 0.716,0.673 1.073,0.986l0.064,0.056c3.826,3.363 8.386,5.067 13.552,5.067c4.758,0 9.029,-1.488 12.697,-4.422c1.254,-1.753 1.89,-4.006 1.89,-6.695c0,-2.14 -0.488,-4.051 -1.452,-5.68c-1.141,-1.931 -2.97,-3.494 -5.433,-4.646l-10.551,-4.883c-2.509,-1.164 -3.728,-2.659 -3.728,-4.57c0,-1.611 0.546,-2.791 1.67,-3.608c0.072,-0.05 0.153,-0.1 0.244,-0.15c1.493,-0.536 3.074,-0.802 4.721,-0.802c3.861,0 7.066,1.401 9.799,4.283c2.704,2.852 4.076,6.373 4.076,10.465c0,0.936 -0.088,1.878 -0.261,2.802c0.16,0.228 0.309,0.459 0.443,0.685c0.994,1.68 1.497,3.646 1.497,5.846c0,2 -0.348,3.774 -1.036,5.29c0.008,-0.007 0.015,-0.015 0.023,-0.023c4.054,-4.053 6.109,-8.945 6.109,-14.542Z" style="fill:#fff;"/><path d="M20.057,12.713c-0.282,-0.31 -0.691,-0.641 -1.227,-0.994c-0.536,-0.353 -1.164,-0.684 -1.883,-0.994c-0.719,-0.311 -1.509,-0.565 -2.37,-0.762c-0.86,-0.197 -1.742,-0.296 -2.644,-0.296c-2.003,0 -3.477,0.367 -4.422,1.1c-0.945,0.733 -1.418,1.749 -1.418,3.047c0,0.733 0.148,1.333 0.445,1.798c0.296,0.465 0.754,0.875 1.375,1.227c0.62,0.353 1.396,0.663 2.327,0.931c0.931,0.268 2.017,0.557 3.258,0.868c1.524,0.366 2.899,0.775 4.126,1.227c1.227,0.451 2.264,1.001 3.11,1.65c0.846,0.649 1.502,1.446 1.968,2.391c0.465,0.945 0.698,2.094 0.698,3.448c0,1.524 -0.289,2.835 -0.867,3.936c-0.579,1.1 -1.369,1.995 -2.37,2.687c-1.002,0.691 -2.165,1.199 -3.491,1.523c-1.326,0.324 -2.75,0.487 -4.274,0.487c-2.285,0 -4.492,-0.346 -6.622,-1.037c-2.13,-0.691 -4.055,-1.7 -5.776,-3.026l2.158,-4.062c0.367,0.367 0.896,0.776 1.587,1.227c0.691,0.452 1.495,0.868 2.412,1.249c0.917,0.38 1.911,0.705 2.983,0.973c1.072,0.268 2.186,0.402 3.343,0.402c1.862,0 3.3,-0.325 4.316,-0.973c1.015,-0.649 1.523,-1.608 1.523,-2.878c0,-0.762 -0.19,-1.396 -0.571,-1.904c-0.381,-0.508 -0.924,-0.952 -1.629,-1.333c-0.705,-0.381 -1.566,-0.726 -2.581,-1.037c-1.016,-0.31 -2.172,-0.634 -3.47,-0.973c-1.495,-0.395 -2.8,-0.811 -3.914,-1.248c-1.115,-0.437 -2.038,-0.966 -2.772,-1.587c-0.733,-0.621 -1.29,-1.347 -1.671,-2.179c-0.381,-0.832 -0.572,-1.841 -0.572,-3.026c0,-1.467 0.283,-2.771 0.847,-3.914c0.564,-1.142 1.333,-2.101 2.306,-2.877c0.973,-0.776 2.123,-1.361 3.449,-1.756c1.325,-0.395 2.764,-0.593 4.316,-0.593c2.031,0 3.907,0.325 5.628,0.974c1.72,0.648 3.23,1.452 4.527,2.412l-2.158,3.892Z" style="fill:#fff;fill-rule:nonzero;"/><path d="M41.68,35.902c-2.144,0 -4.098,-0.43 -5.861,-1.291c-1.763,-0.86 -3.279,-2.003 -4.548,-3.427c-1.27,-1.425 -2.25,-3.054 -2.941,-4.888c-0.691,-1.833 -1.037,-3.709 -1.037,-5.627c0,-2.003 0.367,-3.922 1.1,-5.755c0.734,-1.834 1.742,-3.456 3.026,-4.866c1.283,-1.411 2.807,-2.532 4.57,-3.364c1.763,-0.833 3.688,-1.249 5.776,-1.249c2.144,0 4.097,0.445 5.86,1.333c1.763,0.889 3.273,2.053 4.528,3.491c1.255,1.439 2.228,3.068 2.92,4.888c0.691,1.819 1.036,3.674 1.036,5.564c0,2.003 -0.359,3.921 -1.079,5.755c-0.719,1.833 -1.728,3.448 -3.025,4.845c-1.298,1.396 -2.828,2.51 -4.591,3.343c-1.764,0.832 -3.675,1.248 -5.734,1.248Zm-9.563,-15.233c0,1.41 0.226,2.778 0.677,4.104c0.451,1.326 1.093,2.497 1.925,3.512c0.832,1.016 1.841,1.827 3.026,2.433c1.185,0.607 2.51,0.91 3.977,0.91c1.524,0 2.871,-0.317 4.041,-0.952c1.171,-0.635 2.165,-1.474 2.984,-2.518c0.818,-1.043 1.438,-2.214 1.861,-3.512c0.424,-1.297 0.635,-2.623 0.635,-3.977c0,-1.439 -0.226,-2.814 -0.677,-4.126c-0.451,-1.312 -1.093,-2.468 -1.925,-3.47c-0.832,-1.001 -1.834,-1.805 -3.005,-2.412c-1.17,-0.606 -2.475,-0.91 -3.914,-0.91c-1.523,0 -2.877,0.318 -4.062,0.953c-1.185,0.634 -2.186,1.459 -3.004,2.475c-0.818,1.015 -1.446,2.179 -1.883,3.491c-0.438,1.312 -0.656,2.645 -0.656,3.999Z" style="fill:#fff;fill-rule:nonzero;"/><path d="M62.076,35.69l0,-30.043l4.739,0l0,25.854l16.122,0l0,4.189l-20.861,0Z" style="fill:#fff;fill-rule:nonzero;"/><rect x="87.845" y="5.647" width="4.739" height="30.043" style="fill:#fff;fill-rule:nonzero;"/><path d="M100.413,35.69l0,-30.043l10.663,0c2.426,0 4.549,0.395 6.368,1.185c1.82,0.79 3.343,1.862 4.57,3.216c1.228,1.354 2.151,2.941 2.772,4.76c0.621,1.82 0.931,3.759 0.931,5.818c0,2.285 -0.346,4.352 -1.037,6.199c-0.691,1.848 -1.671,3.428 -2.941,4.74c-1.269,1.311 -2.807,2.327 -4.612,3.046c-1.805,0.72 -3.822,1.079 -6.051,1.079l-10.663,0Zm20.48,-15.064c0,-1.579 -0.219,-3.032 -0.656,-4.358c-0.437,-1.326 -1.079,-2.461 -1.925,-3.406c-0.846,-0.945 -1.876,-1.686 -3.089,-2.222c-1.213,-0.536 -2.595,-0.804 -4.147,-0.804l-5.924,0l0,21.665l5.924,0c1.58,0 2.983,-0.275 4.21,-0.825c1.227,-0.55 2.257,-1.312 3.089,-2.285c0.833,-0.973 1.46,-2.123 1.883,-3.449c0.423,-1.325 0.635,-2.764 0.635,-4.316Z" style="fill:#fff;fill-rule:nonzero;"/><path d="M200.587,35.902c-2.144,0 -4.098,-0.43 -5.861,-1.291c-1.763,-0.86 -3.279,-2.003 -4.549,-3.427c-1.269,-1.425 -2.249,-3.054 -2.94,-4.888c-0.692,-1.833 -1.037,-3.709 -1.037,-5.627c0,-2.003 0.367,-3.922 1.1,-5.755c0.734,-1.834 1.742,-3.456 3.026,-4.866c1.283,-1.411 2.806,-2.532 4.57,-3.364c1.763,-0.833 3.688,-1.249 5.775,-1.249c2.144,0 4.098,0.445 5.861,1.333c1.763,0.889 3.272,2.053 4.528,3.491c1.255,1.439 2.228,3.068 2.919,4.888c0.692,1.819 1.037,3.674 1.037,5.564c0,2.003 -0.36,3.921 -1.079,5.755c-0.719,1.833 -1.728,3.448 -3.025,4.845c-1.298,1.396 -2.828,2.51 -4.591,3.343c-1.764,0.832 -3.675,1.248 -5.734,1.248Zm-9.563,-15.233c0,1.41 0.225,2.778 0.677,4.104c0.451,1.326 1.093,2.497 1.925,3.512c0.832,1.016 1.841,1.827 3.026,2.433c1.184,0.607 2.51,0.91 3.977,0.91c1.524,0 2.871,-0.317 4.041,-0.952c1.171,-0.635 2.165,-1.474 2.983,-2.518c0.818,-1.043 1.439,-2.214 1.862,-3.512c0.423,-1.297 0.635,-2.623 0.635,-3.977c0,-1.439 -0.226,-2.814 -0.677,-4.126c-0.451,-1.312 -1.093,-2.468 -1.925,-3.47c-0.833,-1.001 -1.834,-1.805 -3.005,-2.412c-1.17,-0.606 -2.475,-0.91 -3.914,-0.91c-1.523,0 -2.877,0.318 -4.062,0.953c-1.185,0.634 -2.186,1.459 -3.004,2.475c-0.818,1.015 -1.446,2.179 -1.883,3.491c-0.438,1.312 -0.656,2.645 -0.656,3.999Z" style="fill:#fff;fill-rule:nonzero;"/><path d="M244.594,27.947c0,1.213 -0.247,2.299 -0.74,3.258c-0.494,0.959 -1.157,1.77 -1.989,2.433c-0.832,0.663 -1.813,1.171 -2.941,1.523c-1.128,0.353 -2.327,0.529 -3.597,0.529l-14.344,0l0,-30.043l15.487,0c1.043,0 1.989,0.226 2.835,0.677c0.846,0.451 1.565,1.037 2.158,1.756c0.592,0.719 1.051,1.537 1.375,2.454c0.324,0.917 0.487,1.841 0.487,2.772c0,1.467 -0.374,2.842 -1.122,4.126c-0.747,1.283 -1.812,2.235 -3.194,2.856c1.72,0.508 3.082,1.431 4.083,2.771c1.001,1.34 1.502,2.969 1.502,4.888Zm-4.866,-0.889c0,-0.62 -0.106,-1.213 -0.317,-1.777c-0.212,-0.564 -0.494,-1.058 -0.847,-1.481c-0.352,-0.423 -0.783,-0.762 -1.29,-1.016c-0.508,-0.254 -1.058,-0.38 -1.651,-0.38l-9.901,0l0,9.182l9.605,0c0.621,0 1.199,-0.12 1.735,-0.36c0.536,-0.24 1.002,-0.564 1.397,-0.973c0.394,-0.409 0.705,-0.889 0.93,-1.439c0.226,-0.55 0.339,-1.135 0.339,-1.756Zm-14.006,-17.307l0,8.844l8.717,0c0.592,0 1.135,-0.113 1.629,-0.338c0.493,-0.226 0.931,-0.529 1.311,-0.91c0.381,-0.381 0.678,-0.839 0.889,-1.375c0.212,-0.536 0.317,-1.129 0.317,-1.778c0,-1.297 -0.366,-2.362 -1.1,-3.194c-0.733,-0.832 -1.664,-1.249 -2.793,-1.249l-8.97,0Z" style="fill:#fff;fill-rule:nonzero;"/><path d="M248.783,30.401c0.48,0.339 1.192,0.67 2.137,0.994c0.945,0.325 2.024,0.487 3.237,0.487c1.298,0 2.335,-0.233 3.11,-0.698c0.776,-0.466 1.369,-1.157 1.778,-2.074c0.409,-0.916 0.677,-2.059 0.804,-3.427c0.127,-1.368 0.19,-2.955 0.19,-4.76l0,-15.276l4.782,0l0,15.276c0,2.285 -0.113,4.365 -0.339,6.241c-0.226,1.876 -0.705,3.477 -1.439,4.803c-0.733,1.326 -1.805,2.355 -3.216,3.089c-1.41,0.733 -3.3,1.1 -5.67,1.1c-2.539,0 -4.711,-0.621 -6.516,-1.862l1.142,-3.893Z" style="fill:#fff;fill-rule:nonzero;"/><path d="M292.917,31.501l0,4.189l-20.607,0l0,-30.043l20.227,0l0,4.189l-15.488,0l0,8.548l13.414,0l0,3.935l-13.414,0l0,9.182l15.868,0Z" style="fill:#fff;fill-rule:nonzero;"/><path d="M296.345,20.457c0,-1.805 0.324,-3.604 0.973,-5.395c0.649,-1.791 1.601,-3.399 2.856,-4.824c1.256,-1.425 2.786,-2.574 4.592,-3.449c1.805,-0.874 3.85,-1.311 6.135,-1.311c2.737,0 5.078,0.606 7.024,1.819c1.947,1.213 3.414,2.793 4.401,4.739l-3.723,2.497c-0.424,-0.903 -0.931,-1.664 -1.524,-2.285c-0.592,-0.621 -1.241,-1.114 -1.946,-1.481c-0.706,-0.367 -1.439,-0.628 -2.201,-0.783c-0.761,-0.155 -1.495,-0.233 -2.2,-0.233c-1.58,0 -2.962,0.318 -4.147,0.953c-1.185,0.634 -2.179,1.473 -2.983,2.517c-0.804,1.044 -1.411,2.215 -1.82,3.512c-0.409,1.298 -0.613,2.596 -0.613,3.893c0,1.467 0.24,2.864 0.719,4.189c0.48,1.326 1.15,2.497 2.01,3.513c0.861,1.015 1.883,1.826 3.068,2.433c1.185,0.606 2.482,0.909 3.893,0.909c0.733,0 1.488,-0.091 2.264,-0.275c0.776,-0.183 1.523,-0.479 2.242,-0.888c0.72,-0.409 1.383,-0.924 1.989,-1.545c0.607,-0.62 1.107,-1.368 1.502,-2.242l3.936,2.242c-0.48,1.129 -1.157,2.123 -2.031,2.984c-0.875,0.86 -1.862,1.586 -2.962,2.179c-1.101,0.592 -2.264,1.043 -3.491,1.354c-1.228,0.31 -2.434,0.465 -3.618,0.465c-2.116,0 -4.048,-0.451 -5.797,-1.354c-1.749,-0.903 -3.259,-2.08 -4.528,-3.533c-1.27,-1.453 -2.257,-3.103 -2.962,-4.951c-0.705,-1.848 -1.058,-3.731 -1.058,-5.649Z" style="fill:#fff;fill-rule:nonzero;"/><path d="M350,9.836l-9.986,0l0,25.854l-4.782,0l0,-25.854l-10.028,0l0,-4.189l24.796,0l0,4.189Z" style="fill:#fff;fill-rule:nonzero;"/></g></g></svg>